<svg width="64" height="64" viewBox="0 0 64 64" xmlns="http://www.w3.org/2000/svg" role="img" aria-label="Orthopedic Spine Logo">
  <defs>
    <linearGradient id="spineGradient" x1="0%" y1="0%" x2="0%" y2="100%">
      <stop offset="0%" style="stop-color:#1890ff;stop-opacity:1" />
      <stop offset="100%" style="stop-color:#096dd9;stop-opacity:1" />
    </linearGradient>
    <linearGradient id="accentGradient" x1="0%" y1="0%" x2="100%" y2="0%">
      <stop offset="0%" style="stop-color:#52c41a;stop-opacity:1" />
      <stop offset="100%" style="stop-color:#389e0d;stop-opacity:1" />
    </linearGradient>
  </defs>
  
  <!-- Outer circle background -->
  <circle cx="32" cy="32" r="30" fill="#f0f5ff" stroke="#1890ff" stroke-width="2"/>
  
  <!-- Stylized spine column -->
  <g id="spine">
    <!-- Spine base -->
    <path d="M 32 12 L 32 52" stroke="url(#spineGradient)" stroke-width="4" stroke-linecap="round"/>
    
    <!-- Vertebrae discs -->
    <ellipse cx="32" cy="15" rx="6" ry="3" fill="#1890ff" opacity="0.9"/>
    <ellipse cx="32" cy="22" rx="7" ry="3.5" fill="#1890ff" opacity="0.85"/>
    <ellipse cx="32" cy="29" rx="8" ry="4" fill="#1890ff" opacity="0.8"/>
    <ellipse cx="32" cy="36" rx="8" ry="4" fill="#1890ff" opacity="0.8"/>
    <ellipse cx="32" cy="43" rx="7" ry="3.5" fill="#1890ff" opacity="0.85"/>
    <ellipse cx="32" cy="50" rx="6" ry="3" fill="#1890ff" opacity="0.9"/>
  </g>
  
  <!-- Medical caduceus inspired wings/protection symbol -->
  <g id="protection">
    <!-- Left curve -->
    <path d="M 24 28 Q 18 32 24 36" stroke="url(#accentGradient)" stroke-width="2.5" fill="none" stroke-linecap="round"/>
    <!-- Right curve -->
    <path d="M 40 28 Q 46 32 40 36" stroke="url(#accentGradient)" stroke-width="2.5" fill="none" stroke-linecap="round"/>
  </g>
  
  <!-- Medical cross accent -->
  <g id="cross">
    <rect x="30.5" y="8" width="3" height="8" rx="1.5" fill="#52c41a"/>
    <rect x="27" y="11.5" width="10" height="3" rx="1.5" fill="#52c41a"/>
  </g>
</svg>
